<svg id="Capa_1" enable-background="new 0 0 511.931 511.931" height="512" viewBox="0 0 511.931 511.931" width="512" xmlns="http://www.w3.org/2000/svg"><g><path d="m80.388 294.321-80.388-80.391 67.61-67.609 84.86-23.956 49.937 49.938z" fill="#c3dafd"/><path d="m297.911 511.845-80.391-80.392 122.015-122.013 50.02 50.015-24.039 84.785z" fill="#a1b8d8"/><path d="m-10.709 432.834h149.483v29.947h-149.483z" fill="#ecc443" transform="matrix(.707 -.707 .707 .707 -297.912 176.463)"/><path d="m-5.362 445.74h149.483v14.826h-149.483z" fill="#e39069" transform="matrix(.707 -.707 .707 .707 -300.106 181.782)"/><path d="m92.804 450.668h78.51v29.948h-78.51z" fill="#e39069" transform="matrix(.707 -.707 .707 .707 -290.58 229.764)"/><path d="m6.946 364.808h78.506v29.947h-78.506z" fill="#ecc443" transform="matrix(.707 -.707 .707 .707 -255.015 143.903)"/><path d="m249.971 413.236-151.201-151.205-39.478 11.194-25.413 59.9 143.767 143.77 61.132-24.184z" fill="#2b4ca1"/><path d="m170.395 341.705c-8.68 8.68-63.781 63.783-63.969 63.97 6.551 6.55 67.455 67.454 71.221 71.22l61.132-24.184 7.17-35.453z" fill="#213b82"/><path d="m477.742 174.698c40.388-91.346 33.31-165.176 34.189-174.554-5.522 1.099-169.695-14.522-303.571 123.985l-149.083 149.081 179.488 179.484 149.073-149.072c37.509-36.154 68.597-80.73 89.904-128.924z" fill="#e4f3ff"/><path d="m477.742 174.698c40.388-91.346 33.31-165.176 34.189-174.554-.007.001-.022.001-.029.003l-362.843 362.843 89.707 89.704 149.073-149.072c37.508-36.154 68.596-80.73 89.903-128.924z" fill="#c3dafd"/><path d="m270.908 241.123c-42.525-42.525-12.96-116.625 48.314-116.664 60.815-.045 91.129 73.896 48.312 116.713-26.625 26.623-69.97 26.603-96.626-.049z" fill="#84d9f3"/><path d="m367.614 144.486-96.672 96.671c26.658 26.617 69.978 26.627 96.592.016 28.812-28.811 24.508-71.716.08-96.687z" fill="#77b0fb"/></g></svg>