<svg id="Layer_1" data-name="Layer 1" xmlns="http://www.w3.org/2000/svg" width="199" height="159" viewBox="0 0 199 159"><defs><style>.cls-1{fill:#bfb8b5;}.cls-2{fill:#dddbd7;}.cls-3{fill:#f4f4f4;}.cls-4{fill:#80868c;}</style></defs><path class="cls-1" d="M139.87,25.68A63.24,63.24,0,0,1,155.08,67c0,34.7-27.65,62.84-61.75,62.84a60.78,60.78,0,0,1-35.62-11.5,61.15,61.15,0,0,0,46.54,21.54c34.1,0,61.75-28.13,61.75-62.84A63.09,63.09,0,0,0,139.87,25.68Z"/><path class="cls-2" d="M155.08,67a63.24,63.24,0,0,0-15.21-41.3,60.69,60.69,0,0,0-35.62-11.5c-34.1,0-61.74,28.13-61.74,62.84a63.25,63.25,0,0,0,15.2,41.3,60.78,60.78,0,0,0,35.62,11.5C127.43,129.82,155.08,101.68,155.08,67Z"/><ellipse class="cls-3" cx="123.02" cy="44.12" rx="14.45" ry="14.7"/><path class="cls-1" d="M124.82,32.72a12.82,12.82,0,0,1,8.24,3,12.88,12.88,0,0,0-10-4.83,13.12,13.12,0,0,0-13,13.23,13.32,13.32,0,0,0,4.76,10.23,13.31,13.31,0,0,1-3-8.4A13.11,13.11,0,0,1,124.82,32.72Z"/><path class="cls-2" d="M136,44.12a13.31,13.31,0,0,0-3-8.4,12.82,12.82,0,0,0-8.24-3,13.11,13.11,0,0,0-13,13.23,13.31,13.31,0,0,0,3,8.4,12.82,12.82,0,0,0,8.25,3A13.11,13.11,0,0,0,136,44.12Z"/><ellipse class="cls-3" cx="66.2" cy="64.65" rx="9.78" ry="9.95"/><path class="cls-1" d="M67.42,56.93A8.67,8.67,0,0,1,73,59a8.72,8.72,0,0,0-6.8-3.28,8.88,8.88,0,0,0-8.8,9,9,9,0,0,0,3.22,6.92,9,9,0,0,1-2-5.68A8.88,8.88,0,0,1,67.42,56.93Z"/><path class="cls-2" d="M75,64.65A9,9,0,0,0,73,59a8.67,8.67,0,0,0-5.58-2,8.88,8.88,0,0,0-8.8,9,9,9,0,0,0,2,5.68,8.66,8.66,0,0,0,5.58,2A8.88,8.88,0,0,0,75,64.65Z"/><ellipse class="cls-3" cx="75.98" cy="105.97" rx="8.28" ry="8.43"/><path class="cls-1" d="M77,99.44a7.38,7.38,0,0,1,4.73,1.72A7.4,7.4,0,0,0,76,98.39,7.52,7.52,0,0,0,68.53,106a7.63,7.63,0,0,0,2.72,5.87A7.63,7.63,0,0,1,69.56,107,7.53,7.53,0,0,1,77,99.44Z"/><path class="cls-2" d="M83.43,106a7.63,7.63,0,0,0-1.69-4.81A7.38,7.38,0,0,0,77,99.44,7.53,7.53,0,0,0,69.56,107a7.63,7.63,0,0,0,1.69,4.81A7.38,7.38,0,0,0,76,113.56,7.53,7.53,0,0,0,83.43,106Z"/><ellipse class="cls-3" cx="76.95" cy="82.04" rx="7.31" ry="7.44"/><path class="cls-1" d="M77.86,76.27A6.47,6.47,0,0,1,82,77.79,6.52,6.52,0,0,0,77,75.34a6.72,6.72,0,0,0-4.18,11.87A6.73,6.73,0,0,1,71.28,83,6.64,6.64,0,0,1,77.86,76.27Z"/><ellipse class="cls-3" cx="151.55" cy="64.56" rx="4.58" ry="4.66"/><path class="cls-1" d="M152.13,60.94a4,4,0,0,1,2.61,1,4.08,4.08,0,0,0-3.19-1.54,4.16,4.16,0,0,0-4.12,4.2,4.22,4.22,0,0,0,1.51,3.24,4.21,4.21,0,0,1,3.19-6.86Z"/><path class="cls-2" d="M155.68,64.56a4.18,4.18,0,0,0-.94-2.66,4,4,0,0,0-2.61-1,4.21,4.21,0,0,0-3.19,6.86,4,4,0,0,0,2.61,1A4.16,4.16,0,0,0,155.68,64.56Z"/><ellipse class="cls-3" cx="132.44" cy="76.3" rx="6.25" ry="6.36"/><path class="cls-1" d="M133.22,71.37a5.49,5.49,0,0,1,3.57,1.3,5.58,5.58,0,0,0-4.35-2.1,5.68,5.68,0,0,0-5.63,5.73,5.74,5.74,0,0,0,2.06,4.43,5.77,5.77,0,0,1-1.28-3.63A5.68,5.68,0,0,1,133.22,71.37Z"/><path class="cls-2" d="M138.07,76.3a5.75,5.75,0,0,0-1.28-3.63,5.49,5.49,0,0,0-3.57-1.3,5.68,5.68,0,0,0-5.63,5.73,5.77,5.77,0,0,0,1.28,3.63,5.54,5.54,0,0,0,3.57,1.3A5.68,5.68,0,0,0,138.07,76.3Z"/><ellipse class="cls-3" cx="133.14" cy="97.28" rx="6.25" ry="6.36"/><path class="cls-1" d="M133.92,92.34a5.59,5.59,0,0,1,3.58,1.3,5.61,5.61,0,0,0-10,3.64,5.78,5.78,0,0,0,2,4.43,5.83,5.83,0,0,1-1.27-3.64A5.68,5.68,0,0,1,133.92,92.34Z"/><path class="cls-2" d="M138.77,97.28a5.83,5.83,0,0,0-1.27-3.64,5.59,5.59,0,0,0-3.58-1.3,5.68,5.68,0,0,0-5.62,5.73,5.83,5.83,0,0,0,1.27,3.64,5.59,5.59,0,0,0,3.57,1.3A5.68,5.68,0,0,0,138.77,97.28Z"/><ellipse class="cls-3" cx="116.76" cy="113.59" rx="6.25" ry="6.36"/><path class="cls-1" d="M117.54,108.66a5.54,5.54,0,0,1,3.57,1.3,5.57,5.57,0,0,0-4.35-2.09,5.67,5.67,0,0,0-5.63,5.72,5.74,5.74,0,0,0,2.06,4.43,5.75,5.75,0,0,1-1.28-3.63A5.68,5.68,0,0,1,117.54,108.66Z"/><path class="cls-2" d="M122.39,113.59a5.75,5.75,0,0,0-1.28-3.63,5.54,5.54,0,0,0-3.57-1.3,5.68,5.68,0,0,0-5.63,5.73,5.75,5.75,0,0,0,1.28,3.63,5.57,5.57,0,0,0,3.57,1.3A5.68,5.68,0,0,0,122.39,113.59Z"/><ellipse class="cls-3" cx="152.08" cy="82.85" rx="4.58" ry="4.66"/><path class="cls-1" d="M152.65,79.23a4.08,4.08,0,0,1,2.62,1,4.11,4.11,0,0,0-3.19-1.53,4.16,4.16,0,0,0-4.12,4.2,4.22,4.22,0,0,0,1.51,3.24,4.21,4.21,0,0,1,3.18-6.86Z"/><path class="cls-2" d="M156.21,82.85a4.27,4.27,0,0,0-.94-2.67,4.08,4.08,0,0,0-2.62-1,4.21,4.21,0,0,0-3.18,6.86,4.08,4.08,0,0,0,2.61,1A4.16,4.16,0,0,0,156.21,82.85Z"/><ellipse class="cls-3" cx="52.37" cy="94.32" rx="4.05" ry="4.12"/><path class="cls-1" d="M52.88,91.12a3.57,3.57,0,0,1,2.31.85,3.61,3.61,0,0,0-2.82-1.36,3.73,3.73,0,0,0-2.31,6.58,3.72,3.72,0,0,1-.83-2.36A3.68,3.68,0,0,1,52.88,91.12Z"/><path class="cls-2" d="M56,94.32A3.72,3.72,0,0,0,55.19,92a3.57,3.57,0,0,0-2.31-.85,3.68,3.68,0,0,0-3.65,3.71,3.72,3.72,0,0,0,.83,2.36,3.56,3.56,0,0,0,2.31.84A3.68,3.68,0,0,0,56,94.32Z"/><ellipse class="cls-3" cx="95.71" cy="129.82" rx="3.17" ry="3.23"/><path class="cls-1" d="M96.1,127.32a2.86,2.86,0,0,1,1.82.66,2.84,2.84,0,0,0-2.21-1.06,2.87,2.87,0,0,0-2.85,2.9,2.93,2.93,0,0,0,1,2.25,2.93,2.93,0,0,1-.65-1.85A2.88,2.88,0,0,1,96.1,127.32Z"/><path class="cls-2" d="M98.56,129.82a2.93,2.93,0,0,0-.64-1.84,2.85,2.85,0,0,0-4.67,2.24,2.93,2.93,0,0,0,.65,1.85,2.8,2.8,0,0,0,1.81.65A2.87,2.87,0,0,0,98.56,129.82Z"/><ellipse class="cls-3" cx="100.64" cy="73.52" rx="4.05" ry="4.12"/><path class="cls-1" d="M101.15,70.33a3.56,3.56,0,0,1,2.31.84,3.61,3.61,0,0,0-2.82-1.36,3.73,3.73,0,0,0-2.31,6.58A3.72,3.72,0,0,1,97.5,74,3.68,3.68,0,0,1,101.15,70.33Z"/><ellipse class="cls-3" cx="100.29" cy="57.39" rx="2.11" ry="2.15"/><path class="cls-1" d="M100.55,55.72a1.85,1.85,0,0,1,1.21.44,1.87,1.87,0,0,0-1.47-.71,1.94,1.94,0,0,0-1.21,3.43,1.94,1.94,0,0,1-.43-1.23A1.91,1.91,0,0,1,100.55,55.72Z"/><path class="cls-2" d="M102.19,57.39a1.94,1.94,0,0,0-.43-1.23,1.85,1.85,0,0,0-1.21-.44,1.91,1.91,0,0,0-1.9,1.93,1.94,1.94,0,0,0,.43,1.23,1.85,1.85,0,0,0,1.21.44A1.92,1.92,0,0,0,102.19,57.39Z"/><ellipse class="cls-3" cx="86.37" cy="50.66" rx="1.67" ry="1.7"/><path class="cls-1" d="M86.58,49.34a1.49,1.49,0,0,1,1,.35,1.5,1.5,0,0,0-2.67,1,1.53,1.53,0,0,0,.55,1.19,1.54,1.54,0,0,1-.35-1A1.53,1.53,0,0,1,86.58,49.34Z"/><path class="cls-2" d="M87.88,50.66a1.54,1.54,0,0,0-.34-1,1.49,1.49,0,0,0-1-.35,1.53,1.53,0,0,0-1.51,1.53,1.54,1.54,0,0,0,.35,1,1.5,1.5,0,0,0,2.46-1.19Z"/><ellipse class="cls-3" cx="75.19" cy="40.44" rx="3.26" ry="3.32"/><path class="cls-1" d="M75.59,37.87a2.89,2.89,0,0,1,1.86.68,2.89,2.89,0,0,0-2.26-1.09,3,3,0,0,0-2.94,3,3,3,0,0,0,1.07,2.31,3,3,0,0,1-.66-1.89A3,3,0,0,1,75.59,37.87Z"/><path class="cls-2" d="M78.12,40.44a3,3,0,0,0-.67-1.89,2.89,2.89,0,0,0-1.86-.68,3,3,0,0,0-2.93,3,3,3,0,0,0,.66,1.89,2.93,2.93,0,0,0,4.8-2.31Z"/><ellipse class="cls-3" cx="97.65" cy="105.97" rx="2.11" ry="2.15"/><path class="cls-1" d="M97.91,104.31a1.85,1.85,0,0,1,1.21.44,1.87,1.87,0,0,0-1.47-.71A1.92,1.92,0,0,0,95.74,106a2,2,0,0,0,.7,1.5,1.94,1.94,0,0,1-.43-1.23A1.91,1.91,0,0,1,97.91,104.31Z"/><path class="cls-2" d="M99.55,106a1.93,1.93,0,0,0-.43-1.22,1.85,1.85,0,0,0-1.21-.44,1.91,1.91,0,0,0-1.9,1.93,1.94,1.94,0,0,0,.43,1.23,1.85,1.85,0,0,0,1.21.44A1.92,1.92,0,0,0,99.55,106Z"/><ellipse class="cls-3" cx="148.03" cy="46.81" rx="2.11" ry="2.15"/><path class="cls-1" d="M148.29,45.14a1.85,1.85,0,0,1,1.21.44,1.9,1.9,0,0,0-1.47-.71,1.94,1.94,0,0,0-1.21,3.43,1.94,1.94,0,0,1,1.47-3.16Z"/><path class="cls-2" d="M149.93,46.81a1.94,1.94,0,0,0-.43-1.23,1.85,1.85,0,0,0-1.21-.44,1.94,1.94,0,0,0-1.47,3.16,1.85,1.85,0,0,0,1.21.44A1.91,1.91,0,0,0,149.93,46.81Z"/><ellipse class="cls-3" cx="141.51" cy="119.96" rx="2.11" ry="2.15"/><path class="cls-1" d="M141.78,118.29a1.9,1.9,0,0,1,1.2.44,1.88,1.88,0,0,0-1.47-.71,1.92,1.92,0,0,0-1.9,1.94,2,2,0,0,0,.7,1.5,2,2,0,0,1-.44-1.23A1.93,1.93,0,0,1,141.78,118.29Z"/><path class="cls-2" d="M143.42,120a1.94,1.94,0,0,0-.44-1.23,1.9,1.9,0,0,0-1.2-.44,1.93,1.93,0,0,0-1.91,1.94,2,2,0,0,0,.44,1.23,1.86,1.86,0,0,0,1.2.44A1.93,1.93,0,0,0,143.42,120Z"/><ellipse class="cls-3" cx="109.27" cy="86.79" rx="4.76" ry="4.84"/><path class="cls-1" d="M109.87,83a4.2,4.2,0,0,1,2.71,1,4.21,4.21,0,0,0-3.31-1.6A4.32,4.32,0,0,0,105,86.79a4.37,4.37,0,0,0,1.57,3.37,4.38,4.38,0,0,1-1-2.77A4.31,4.31,0,0,1,109.87,83Z"/><path class="cls-2" d="M113.55,86.79a4.35,4.35,0,0,0-1-2.76,4.2,4.2,0,0,0-2.71-1,4.31,4.31,0,0,0-4.28,4.35,4.38,4.38,0,0,0,1,2.77,4.2,4.2,0,0,0,2.71,1A4.32,4.32,0,0,0,113.55,86.79Z"/><ellipse class="cls-3" cx="97.29" cy="31.21" rx="6.87" ry="6.99"/><path class="cls-1" d="M98.15,25.79a6,6,0,0,1,3.92,1.43,6.1,6.1,0,0,0-4.78-2.3,6.23,6.23,0,0,0-6.18,6.29,6.31,6.31,0,0,0,2.26,4.86,6.32,6.32,0,0,1,4.78-10.28Z"/><path class="cls-2" d="M103.48,31.21a6.29,6.29,0,0,0-1.41-4,6,6,0,0,0-3.92-1.43,6.32,6.32,0,0,0-4.78,10.28,6.07,6.07,0,0,0,3.92,1.43A6.24,6.24,0,0,0,103.48,31.21Z"/><rect class="cls-4" x="59.85" y="73.05" width="89.15" height="8.18" rx="4.09"/><rect class="cls-4" x="58.22" y="64.06" width="48.25" height="8.18" rx="4.09" transform="translate(-21.56 43.1) rotate(-26.06)"/><rect class="cls-4" x="56.9" y="82.84" width="48.25" height="8.18" rx="4.09" transform="translate(49.5 -27.65) rotate(27.6)"/></svg>